<?xml version="1.0" standalone="no"?>
<!DOCTYPE svg PUBLIC "-//W3C//DTD SVG 20010904//EN"
 "http://www.w3.org/TR/2001/REC-SVG-20010904/DTD/svg10.dtd">
<svg version="1.0" xmlns="http://www.w3.org/2000/svg"
 width="147.000000pt" height="147.000000pt" viewBox="0 0 147.000000 147.000000"
 preserveAspectRatio="xMidYMid meet">
<metadata>
Created by potrace 1.11, written by Peter Selinger 2001-2013
</metadata>
<g transform="translate(0.000000,147.000000) scale(0.100000,-0.100000)"
fill="#000000" stroke="none">
<path d="M0 735 l0 -735 735 0 735 0 0 735 0 735 -735 0 -735 0 0 -735z m526
470 c20 -13 22 -19 13 -45 -11 -29 -12 -29 -67 -24 -49 5 -60 3 -75 -14 -15
-17 -103 -320 -94 -328 1 -2 20 1 42 6 77 18 195 11 270 -15 90 -32 160 -32
250 0 76 27 208 34 274 15 19 -5 36 -8 37 -7 9 8 -77 312 -93 329 -15 17 -26
19 -75 14 -55 -5 -56 -5 -67 24 -9 26 -7 32 12 44 64 40 162 20 206 -43 34
-48 121 -402 121 -492 0 -108 -16 -156 -70 -209 -49 -50 -102 -70 -182 -70
-144 1 -233 78 -245 211 l-6 59 -37 0 -37 0 -6 -59 c-13 -149 -129 -229 -299
-207 -63 9 -82 18 -131 65 -46 44 -67 108 -67 207 0 91 86 447 120 494 46 64
144 86 206 45z"/>
<path d="M348 688 c-26 -9 -28 -13 -28 -68 0 -53 3 -61 31 -84 26 -22 40 -26
95 -26 107 0 144 35 144 137 0 29 -4 33 -37 42 -47 13 -169 13 -205 -1z"/>
<path d="M923 689 c-28 -8 -33 -14 -33 -42 0 -18 5 -49 11 -69 13 -51 49 -68
137 -68 62 0 71 3 95 28 23 24 27 37 27 84 0 44 -4 57 -17 63 -30 12 -186 15
-220 4z"/>
</g>
</svg>
